<svg xmlns="http://www.w3.org/2000/svg" viewBox="0 0 284.65 85.79"><g id="Layer_2" data-name="Layer 2"><g id="Layer_1-2" data-name="Layer 1"><path d="M284.65,55.71A3.73,3.73,0,1,1,280.92,52,3.69,3.69,0,0,1,284.65,55.71Zm-.45,0A3.29,3.29,0,1,0,280.92,59,3.22,3.22,0,0,0,284.2,55.71Zm-3-2.07c1.1,0,1.66.61,1.66,1.34a1.35,1.35,0,0,1-1.31,1.31l1.25,1.5v0h-.62L281,56.31h-.86v1.48h-.58V53.64Zm-1.11,2.17h1.07c.77,0,1.12-.34,1.12-.83s-.35-.84-1.12-.84h-1.07Z"/><path d="M158.83,74.85c5.71-1.19,9.65-5.28,9.65-11,0-6.84-4.8-11.84-13.55-11.84H139.09V85.79h6.26a2.07,2.07,0,0,0,2.06-2.07V76h.43A2.74,2.74,0,0,1,150,77.05l6.09,7.77a2.5,2.5,0,0,0,2,1h9.23l-8.82-9.71a.76.76,0,0,1,.34-1.23Zm-5.19-6.18h-3.5a2.87,2.87,0,0,1-2.87-2.87V59.63h6.37c4.66,0,6.57,1.76,6.57,4.47S158.3,68.67,153.64,68.67Z"/><path d="M14.61,85.79a3.32,3.32,0,0,1-3.12-2.19L0,52.08H0v0H7.59a2.28,2.28,0,0,1,2.14,1.49l6.55,17.77a1,1,0,0,0,1.89,0L24.8,53.55a2.28,2.28,0,0,1,2.14-1.49h7.59v0h0L23.08,83.6A3.34,3.34,0,0,1,20,85.79Z"/><path d="M75,68.54V85.79H66.86V52H73A3.57,3.57,0,0,1,76,53.55l11.32,16.3a1,1,0,0,0,1.88-.59V52h8.23V85.79H91.17a3.57,3.57,0,0,1-2.93-1.53L76.92,68A1,1,0,0,0,75,68.54Z"/><path d="M117,52c10.18,0,17.6,7.47,17.6,16.88S127.16,85.79,117,85.79H105.7a2.56,2.56,0,0,1-2.56-2.56V52ZM111.46,60V75.28A2.57,2.57,0,0,0,114,77.85h2.67c5.37,0,9.41-3.67,9.41-8.95s-4-8.94-9.41-8.94Z"/><path d="M217.41,67.17V83.86a1.93,1.93,0,0,1-1.93,1.93h-6.35V52h6.48a3.06,3.06,0,0,1,2.48,1.27l7.08,9.88a1.45,1.45,0,0,0,2.35,0l7-9.86A3.08,3.08,0,0,1,237,52h6.46V85.79h-6.39a1.93,1.93,0,0,1-1.93-1.93V67.21a1,1,0,0,0-1.72-.59l-7.15,9.28-7.15-9.32A1,1,0,0,0,217.41,67.17Z"/><path d="M47.73,78.27a1.41,1.41,0,0,1-1.41-1.41V72.23H59.87V65.34H47.73a1.41,1.41,0,0,1-1.41-1.41V59.44H60a1.92,1.92,0,0,0,1.92-1.92V52H39.92A1.92,1.92,0,0,0,38,53.94V82.81a3,3,0,0,0,3,3H62.06V78.27Z"/><path d="M259,78.27a1.41,1.41,0,0,1-1.41-1.41V72.23h13.56V65.34H259a1.41,1.41,0,0,1-1.41-1.41V59.44h13.63a1.92,1.92,0,0,0,1.92-1.92V52H251.19a1.92,1.92,0,0,0-1.92,1.92V82.81a3,3,0,0,0,3,3h21.09V78.27Z"/><path d="M193.86,53.64A2.49,2.49,0,0,0,191.53,52h-8.31L170.81,85.69v.1h7.13a2.5,2.5,0,0,0,2.37-1.72L182,78.89h12.55l1.23,3.84.45,1.35a2.49,2.49,0,0,0,2.36,1.71h7.15v-.1Zm-9.51,17.88,3.82-11.89h.19l2.92,9.12.89,2.77Z"/><path d="M87.45,8.68a16.8,16.8,0,1,0,17.11,16.79A16.78,16.78,0,0,0,87.45,8.68ZM101.6,25.47a14.15,14.15,0,0,1-28.3,0,14.15,14.15,0,0,1,28.3,0Z"/><path d="M89.74,6.17,94,1l.78-1H92.43a2.77,2.77,0,0,0-2.2,1.09L86.35,6.22l-.68,1h1.94A2.79,2.79,0,0,0,89.74,6.17Z"/><path d="M105.84,11.56h10A1.25,1.25,0,0,1,117,12.81V42.27h3V12.81a1.25,1.25,0,0,1,1.25-1.25h9.94V8.68H105.84Z"/><path d="M136.09,10.71V42.27H137a2,2,0,0,0,2-2V8.68h-.94A2,2,0,0,0,136.09,10.71Z"/><path d="M168.49,38.33a16.59,16.59,0,0,1-5.73,1c-8.36,0-14.65-6-14.65-13.86s6.27-13.85,14.6-13.85a16.59,16.59,0,0,1,5.73,1l.78.3V11.13A1.7,1.7,0,0,0,168,9.51a17.29,17.29,0,0,0-5.47-.83c-9.94,0-17.43,7.22-17.43,16.79s7.51,16.8,17.48,16.8A16.93,16.93,0,0,0,169,41.14l.35-.14v-3l-.76.26Z"/><path d="M189,8.68h-3.13l-13.6,32.8-.34.79h1.8a2.3,2.3,0,0,0,2.15-1.45l3.25-8.06h16.56L199,40.82a2.31,2.31,0,0,0,2.15,1.45H203l-.32-.73ZM194,29.44a1,1,0,0,1-.83.45H181.77a1,1,0,0,1-.93-1.38l6.59-16.13,6.62,16.12A1,1,0,0,1,194,29.44Z"/></g></g></svg>