<svg height="512" viewBox="0 0 192 192" width="512" xmlns="http://www.w3.org/2000/svg" xmlns:xlink="http://www.w3.org/1999/xlink"><linearGradient id="New_Gradient_Swatch_1" gradientUnits="userSpaceOnUse" x1="-4.378" x2="23.835" y1="93.829" y2="65.617"><stop offset="0" stop-color="#34cdfa"/><stop offset="1" stop-color="#e8d9f1"/></linearGradient><linearGradient id="New_Gradient_Swatch_1-2" x1="6.149" x2="65.63" xlink:href="#New_Gradient_Swatch_1" y1="123.069" y2="63.587"/><linearGradient id="New_Gradient_Swatch_1-3" x1="40.704" x2="133.815" xlink:href="#New_Gradient_Swatch_1" y1="153.666" y2="60.554"/><linearGradient id="New_Gradient_Swatch_1-4" x1="126.415" x2="191.722" xlink:href="#New_Gradient_Swatch_1" y1="141.715" y2="76.408"/><linearGradient id="New_Gradient_Swatch_1-5" x1="157.418" x2="190.016" xlink:href="#New_Gradient_Swatch_1" y1="146.539" y2="113.942"/><g id="_13-eyeglasses" data-name="13-eyeglasses"><g id="Flat"><path d="m14.784 84.24-13.568-8.48c.416-.66 10.319-16.473 22.384-32.56 23.263-31.018 33.477-35.2 40.4-35.2 12.011 0 20.76 15.631 23.155 20.422l-14.31 7.156c-2.532-5.024-6.824-10.52-8.937-11.513-1.518.508-9.232 4.188-28.273 29.758-11.305 15.182-20.757 30.267-20.851 30.417z" fill="#ccf2fe"/><path d="m177.217 84.24c-.095-.15-9.547-15.235-20.853-30.417-19.041-25.57-26.754-29.25-28.272-29.758-2.113.993-6.405 6.49-8.943 11.524l-14.3-7.167c2.391-4.791 11.14-20.422 23.151-20.422 6.923 0 17.137 4.182 40.4 35.2 12.065 16.087 21.968 31.895 22.384 32.56zm-48.86-60.279" fill="#ccf2fe"/><path d="m184 72h-176a8 8 0 0 0 -8 8 123.077 123.077 0 0 0 4.308 30.2c7.982 27.936 23.815 33.8 35.692 33.8 17.005 0 29.091-8.446 38.8-15.233 6.53-4.564 12.171-8.506 17.2-8.506s10.666 3.942 17.2 8.506c9.708 6.787 21.794 15.233 38.8 15.233 11.877 0 27.71-5.864 35.692-33.8a123.077 123.077 0 0 0 4.308-30.2 8 8 0 0 0 -8-8z" fill="#fff"/><path d="m30.217 72h-22.217a8 8 0 0 0 -8 8 124.637 124.637 0 0 0 2.005 20.212z" fill="url(#New_Gradient_Swatch_1)"/><path d="m40.391 72-36.533 36.534c.147.554.291 1.108.45 1.664 2.68 9.383 6.249 16.266 10.254 21.284l59.481-59.482z" fill="url(#New_Gradient_Swatch_1-2)"/><path d="m99.478 72-70.22 70.22a32.446 32.446 0 0 0 10.742 1.78c17.005 0 29.091-8.446 38.8-15.233 6.53-4.564 12.171-8.506 17.2-8.506q.474 0 .954.046l48.307-48.307z" fill="url(#New_Gradient_Swatch_1-3)"/><path d="m184 72h-12.522l-57.389 57.389c8.946 6.242 19.9 13.6 34.79 14.515l40.488-40.488a125.246 125.246 0 0 0 2.633-23.416 8 8 0 0 0 -8-8z" fill="url(#New_Gradient_Swatch_1-4)"/><path d="m154.765 143.887c11.3-.9 25.138-7.684 32.6-32.6z" fill="url(#New_Gradient_Swatch_1-5)"/></g></g></svg>