<svg id="Capa_1" enable-background="new 0 0 512 512" height="512" viewBox="0 0 512 512" width="512" xmlns="http://www.w3.org/2000/svg"><g><g><g><g><g><g><g><circle cx="256" cy="256" fill="#ff6379" r="256"/></g></g></g></g></g></g><path d="m384.825 121.432-47.621-47.621-28.03 28.03-45.674-45.674-15 47.006 77.292 77.292-12.372 12.372-124.766-124.766 1.604 46.338 100.795 100.795-29.75 29.75-105.295-105.296-10.607 10.607 105.296 105.296-131.94 131.939 124.171 124.171c4.33.218 8.688.329 13.072.329 141.385 0 256-114.615 256-256 0-8.603-.432-17.104-1.261-25.489l-117.496-117.496z" fill="#ff415b"/><path d="m248.5 408.827v35.52h15v-35.52c-2.485.12-4.985.185-7.5.185s-5.015-.065-7.5-.185z" fill="#e9f3fb"/><g><g><g><g><g><circle cx="256" cy="256" fill="#e9f3fb" r="128.057"/></g></g></g></g></g><g fill="#e9f3fb"><path d="m248.5 103.173c2.485-.12 4.985-.185 7.5-.185s5.015.065 7.5.185v-47.006h-15z"/><path d="m113.454 118.318 31.947 31.947c3.458-3.616 7.094-7.06 10.889-10.324l-32.229-32.229z"/><path d="m174.796 73.811 17.773 42.908c4.532-2.067 9.183-3.92 13.939-5.545l-17.854-43.103z"/></g><path d="m337.204 73.811-13.858-5.74-17.854 43.103c4.756 1.625 9.406 3.478 13.939 5.545z" fill="#d6e9f8"/><path d="m366.599 150.265 31.947-31.947-10.607-10.607-32.229 32.229c3.795 3.265 7.431 6.709 10.889 10.325z" fill="#d6e9f8"/><path d="m248.5 408.827v35.52h15v-35.52c-2.485.12-4.985.185-7.5.185s-5.015-.065-7.5-.185z" fill="#e9f3fb"/><path d="m139.941 355.71-26.487 26.487 10.607 10.607 26.204-26.204c-3.616-3.459-7.06-7.095-10.324-10.89z" fill="#e9f3fb"/><path d="m309.634 399.339 13.713 33.105 13.858-5.74-13.798-33.311c-4.473 2.198-9.068 4.184-13.773 5.946z" fill="#d6e9f8"/><path d="m361.735 366.599 26.204 26.204 10.607-10.607-26.487-26.487c-3.264 3.796-6.708 7.432-10.324 10.89z" fill="#d6e9f8"/><path d="m174.796 426.703 13.858 5.74 13.712-33.105c-4.705-1.761-9.3-3.748-13.773-5.946z" fill="#e9f3fb"/><path d="m263.5 444.348v-35.52c-2.485.12-4.985.185-7.5.185v35.335z" fill="#d6e9f8"/><path d="m256 102.988c2.515 0 5.015.065 7.5.185v-47.006h-7.5z" fill="#d6e9f8"/><g><g><g><g><g><g><g><path d="m384.057 256c0 70.724-57.333 128.057-128.057 128.057v-256.114c70.724 0 128.057 57.333 128.057 128.057z" fill="#d6e9f8"/></g></g></g></g></g></g></g><g><g><g><g><g><circle cx="256" cy="256" fill="#7c83e7" r="82.207"/></g></g></g></g></g><g><g><g><g><g><path d="m338.207 256c0 45.402-36.805 82.207-82.207 82.207v-164.414c45.402 0 82.207 36.805 82.207 82.207z" fill="#5f5ace"/></g></g></g></g></g><g><g><g><g><g><circle cx="255.945" cy="256" fill="#00347b" r="42.896"/></g></g></g></g></g><g><g><g><g><g><path d="m298.896 256c0 23.691-19.205 42.896-42.896 42.896v-85.793c23.691.001 42.896 19.206 42.896 42.897z" fill="#002659"/></g></g></g></g></g><circle cx="225.982" cy="225.368" fill="#e9f3fb" r="11.601"/></g></svg>