<svg width="32" height="32" xmlns="http://www.w3.org/2000/svg">

 <g>
  <title>background</title>
  <rect fill="none" id="canvas_background" height="402" width="582" y="-1" x="-1"/>
 </g>
 <g>
  <title>Layer 1</title>
  <path fill="#ffffff" id="svg_3" d="m11.047846,21l-8,0c-0.55273,0 -1,-0.44727 -1,-1l0,-8c0,-0.55273 0.44727,-1 1,-1l8,0c0.55273,0 1,0.44727 1,1l0,8c0,0.55273 -0.44727,1 -1,1zm-7,-2l6,0l0,-6l-6,0l0,6z"/>
  <path fill="#ffffff" id="svg_5" d="m29.047846,28l-8,0c-0.55273,0 -1,-0.44727 -1,-1l0,-8c0,-0.55273 0.44727,-1 1,-1l8,0c0.55273,0 1,0.44727 1,1l0,8c0,0.55273 -0.44727,1 -1,1zm-7,-2l6,0l0,-6l-6,0l0,6z"/>
  <path fill="#ffffff" id="svg_7" d="m29.047846,12l-8,0c-0.55273,0 -1,-0.44727 -1,-1l0,-8c0,-0.55273 0.44727,-1 1,-1l8,0c0.55273,0 1,0.44727 1,1l0,8c0,0.55273 -0.44727,1 -1,1zm-7,-2l6,0l0,-6l-6,0l0,6z"/>
  <path fill="#ffffff" id="svg_9" d="m16.047846,32c-0.55273,0 -1,-0.44727 -1,-1l0,-30c0,-0.55273 0.44727,-1 1,-1s1,0.44727 1,1l0,30c0,0.55273 -0.44727,1 -1,1z"/>
  <path fill="#ffffff" id="svg_11" d="m16.047846,17l-5,0c-0.55273,0 -1,-0.44727 -1,-1s0.44727,-1 1,-1l5,0c0.55273,0 1,0.44727 1,1s-0.44727,1 -1,1z"/>
  <path fill="#ffffff" id="svg_13" d="m21.047846,8l-5,0c-0.55273,0 -1,-0.44727 -1,-1s0.44727,-1 1,-1l5,0c0.55273,0 1,0.44727 1,1s-0.44727,1 -1,1z"/>
  <path fill="#ffffff" id="svg_15" d="m21.047846,24l-5,0c-0.55273,0 -1,-0.44727 -1,-1s0.44727,-1 1,-1l5,0c0.55273,0 1,0.44727 1,1s-0.44727,1 -1,1z"/>
 </g>
</svg>