<svg width="60.00000000000001" height="60.00000000000001" xmlns="http://www.w3.org/2000/svg">
 <title/>

 <g>
  <title>background</title>
  <rect fill="none" id="canvas_background" height="402" width="582" y="-1" x="-1"/>
 </g>
 <g>
  <title>Layer 1</title>
  <text id="svg_1" x="14.26172" y="67.390137" font-size="9" font-family="MyriadPro-Regular, Myriad Pro"/>
  <path stroke="null" fill="#ffffff" id="svg_2" d="m59.796712,40.427939l-6.42139,-6.42139a10.91173,10.91173 0 0 0 1.66373,-4.87161l2.05066,0a1,1 0 0 0 0,-2l-2.05066,0a10.99718,10.99718 0 0 0 -21.44946,-2.27979a4.98458,4.98458 0 0 0 -3.49988,-1.72021a4.98458,4.98458 0 0 0 -3.49988,1.72021a10.99718,10.99718 0 0 0 -21.44946,2.27979l-2.05066,0a1,1 0 0 0 0,2l2.05066,0a10.91173,10.91173 0 0 0 1.6637,4.87158l-6.42136,6.42142a0.99989,0.99989 0 1 0 1.414,1.414l6.23944,-6.23944a10.98379,10.98379 0 0 0 19.05356,-7.46756a3.63409,3.63409 0 0 1 3,-3a3.63409,3.63409 0 0 1 3,3a10.98379,10.98379 0 0 0 19.05353,7.46759l6.23947,6.23941a0.99989,0.99989 0 0 0 1.414,-1.414zm-43.707,-5.293a6.97629,6.97629 0 0 1 -6.90332,-5.835a1.00012,1.00012 0 1 1 1.97266,-0.33105a4.98136,4.98136 0 0 0 4.93066,4.16605a1,1 0 0 1 0,2zm28,0a6.97629,6.97629 0 0 1 -6.90332,-5.835a1.00012,1.00012 0 1 1 1.97266,-0.33105a4.98136,4.98136 0 0 0 4.93066,4.16605a1,1 0 0 1 0,2z"/>
 </g>
</svg>