<svg width="30" height="30" xmlns="http://www.w3.org/2000/svg">

 <g>
  <title>background</title>
  <rect fill="none" id="canvas_background" height="402" width="582" y="-1" x="-1"/>
 </g>
 <g>
  <title>Layer 1</title>
  <path fill="#ffffff" id="svg_2" d="m12,6c-4.971,0 -9,4.029 -9,9c0,4.971 4.029,9 9,9s9,-4.029 9,-9c0,-4.971 -4.029,-9 -9,-9zm1,13.014l0,0.986l-2,0l0,-0.978c-1.394,-0.265 -2.248,-1.104 -2.274,-2.34l1.896,0c0.049,0.569 0.617,0.932 1.44,0.932c0.742,0 1.252,-0.358 1.252,-0.873c0,-0.433 -0.342,-0.666 -1.235,-0.845l-1.029,-0.206c-1.43,-0.271 -2.167,-1.051 -2.167,-2.28c0,-1.237 0.812,-2.119 2.118,-2.414l0,-0.996l2,0l0,1.003c1.268,0.298 2.096,1.155 2.122,2.315l-1.836,0c-0.043,-0.552 -0.568,-0.937 -1.268,-0.937s-1.159,0.331 -1.159,0.851c0,0.428 0.347,0.677 1.17,0.839l1.008,0.195c1.544,0.298 2.237,0.997 2.237,2.237c-0.001,1.336 -0.847,2.228 -2.275,2.511z"/>
  <path fill="#ffffff" id="svg_4" d="m22.803,12.961c0.125,0.661 0.197,1.341 0.197,2.039c0,1.825 -0.453,3.543 -1.243,5.059c0.349,0.364 0.517,0.838 0.517,1.444c0,1.336 -0.846,2.228 -2.274,2.511l0,0.986l-2,0l0,-0.792c-1.307,0.855 -2.807,1.432 -4.419,1.665c1.426,1.316 3.325,2.127 5.419,2.127c4.418,0 8,-3.582 8,-8c0,-3.042 -1.698,-5.686 -4.197,-7.039z"/>
  <path fill="#ffffff" id="svg_6" d="m19,5.997l0,-0.997l2,0l0,1.003c1.268,0.298 2.096,1.155 2.122,2.315l-1.836,0c-0.043,-0.552 -0.568,-0.937 -1.268,-0.937c-0.032,0 -0.055,0.009 -0.086,0.011c0.572,0.596 1.073,1.258 1.5,1.97c1.033,0.277 1.602,0.785 1.777,1.577c1.478,0.688 2.757,1.724 3.736,3.007c0.667,-1.164 1.055,-2.507 1.055,-3.946c0,-4.418 -3.582,-8 -8,-8c-2.171,0 -4.13,0.874 -5.57,2.278c1.506,0.34 2.89,0.99 4.091,1.877c0.154,-0.058 0.307,-0.119 0.479,-0.158z"/>
 </g>
</svg>